<svg width="83" height="81" viewBox="0 0 83 81" fill="none" xmlns="http://www.w3.org/2000/svg">
  <!-- White background with rounded corners -->
  <rect x="0" y="0" width="83" height="81" rx="8" fill="white"/>
  
  <!-- Original logo content -->
  <path d="M32.761 0.971039C32.761 0.971039 26.0623 8.17384 26.9629 19.3782C27.3706 24.2841 28.5963 38.6764 46.5634 43.6543C41.9884 39.3193 41.6633 38.5857 41.7432 37.4386C41.8232 36.2914 42.4786 34.2506 46.5634 34.6588C50.6482 35.067 63.0597 38.9938 62.0819 54.7733C63.3049 52.6391 64.368 48.6376 64.368 45.2896C64.368 41.9416 63.6326 37.8494 56.036 32.1245C54.24 30.6519 47.8691 25.9888 47.7065 21.2483C47.6239 19.9411 48.2394 14.3816 53.9736 14.7897C55.3059 14.7897 58.9776 15.2806 61.9166 18.7913C63.6326 17.156 67.8799 13.5573 72.2898 15.8568C73.2704 16.4304 76.7823 19.6183 74.4215 24.5242C73.9951 25.5112 68.6047 34.4134 67.8693 35.4805C67.1339 36.5475 64.1122 41.2027 68.6047 44.3933C68.5221 39.2419 71.2186 38.1775 71.2186 38.1775C71.2186 38.1775 70.5418 44.7187 75.2155 44.4733C73.758 40.7945 74.0617 39.8955 75.2155 38.0148C76.3692 36.134 82.7402 27.3039 81.8423 19.2075C81.5971 18.1404 80.8617 9.55838 71.6343 8.41393C69.5027 8.2512 65.3539 8.33924 62.0792 12.2581C59.5452 10.212 57.9571 8.82209 54.0162 9.05685C50.0753 9.29161 42.0603 12.4288 38.8895 12.3461C35.7186 12.2634 28.2579 12.082 32.761 0.971039Z" fill="#EE344D"/>
  <path d="M39.2836 8.8301C41.7191 8.8301 43.6935 6.85341 43.6935 4.41505C43.6935 1.97669 41.7191 0 39.2836 0C36.8481 0 34.8738 1.97669 34.8738 4.41505C34.8738 6.85341 36.8481 8.8301 39.2836 8.8301Z" fill="#EE344D"/>
  <path d="M12.2597 54.7679C12.694 56.9715 12.71 59.6872 11.9053 60.4982C9.80032 62.6057 7.1544 64.6865 5.03874 66.3458C3.50395 67.5462 2.19032 68.56 1.40694 69.3603C0.838085 69.9128 0.422541 70.6039 0.20111 71.3658C-0.0203205 72.1277 -0.0400245 72.9342 0.143934 73.706C0.455688 75.1279 1.38296 76.6404 2.78985 78.0517C4.61774 79.879 6.52024 80.8181 8.23622 80.8181C8.83499 80.8173 9.42733 80.6943 9.97708 80.4568C10.5268 80.2192 11.0224 79.8719 11.4337 79.4362C12.2491 78.6199 13.2989 77.2727 14.5139 75.7201C16.15 73.6233 18.223 71.0196 20.3147 68.9254C21.0261 68.2132 23.2803 68.0611 25.881 68.5306C28.4544 69.5135 31.177 70.0476 33.9306 70.1099L10.7249 46.8742C10.7957 49.5725 11.3144 52.2401 12.2597 54.7679Z" fill="#010101"/>
  <path d="M55.098 40.6611C52.6609 38.5866 49.6802 37.2561 46.5101 36.8276C46.2445 36.8002 45.9777 36.786 45.7107 36.785C43.9068 36.785 43.8615 37.4279 43.8455 37.8147C43.8426 37.86 43.8426 37.9054 43.8455 37.9507C44.0214 38.6444 47.067 41.5308 48.0662 42.4858L53.7337 47.8533L46.2143 45.7671C38.0181 43.4916 32.1054 39.0765 28.6415 32.6447C27.096 29.7348 26.0562 26.5828 25.5666 23.3237C22.5257 24.8814 19.7482 26.9078 17.3357 29.3287C13.9518 32.7114 11.6043 36.4515 10.6264 43.9077L36.9523 70.1873C42.9662 69.387 47.7118 67.1594 51.4368 63.43C55.7641 59.0976 58.6871 53.8849 59.8062 48.5255C59.1232 45.465 57.4719 42.7069 55.098 40.6611Z" fill="#010101"/>
</svg>
